# xmcd CD database file
#
# Track frame offsets:
#	200
#	19097
#	32725
#	45137
#
# Disc length: 894 seconds
#
# Revision: 0
# Processed by: cddbd v1.4PL0 Copyright (c) Steve Scherf et al.
# Submitted via: CDex 1.50Beta5
#
DISCID=21037c04
DTITLE=Gary Moore - Still got the blues (for you) (ep, collectors edition)
DYEAR=1990
DGENRE=Blues
TTITLE0=Still got the blues (for you)
TTITLE1=Left me with the blues
TTITLE2=Mean cruel woman
TTITLE3=The sky is crying
EXTD=YEAR: 1990
EXTT0=
EXTT1=
EXTT2=
EXTT3=
PLAYORDER=
